<?xml version="1.0" standalone="no"?>
<!DOCTYPE svg PUBLIC "-//W3C//DTD SVG 20010904//EN"
 "http://www.w3.org/TR/2001/REC-SVG-20010904/DTD/svg10.dtd">
<svg version="1.0" xmlns="http://www.w3.org/2000/svg"
 width="992.000000pt" height="992.000000pt" viewBox="0 0 992.000000 992.000000"
 preserveAspectRatio="xMidYMid meet">
<metadata>
Created by potrace 1.14, written by Peter Selinger 2001-2017
</metadata>
<g transform="translate(0.000000,992.000000) scale(0.100000,-0.100000)"
fill="#000000" stroke="none">
<path d="M4868 9635 c-2 -2 -25 -5 -53 -8 -163 -18 -280 -59 -406 -143 -166
-110 -304 -299 -344 -470 -35 -153 -38 -307 -8 -399 4 -11 7 -27 7 -35 1 -13
-143 -102 -264 -163 -19 -10 -51 -27 -70 -39 -19 -11 -69 -39 -110 -61 -41
-22 -91 -50 -110 -62 -19 -12 -45 -25 -57 -29 -13 -4 -23 -12 -23 -17 0 -5 -9
-9 -19 -9 -11 0 -21 -4 -23 -8 -1 -4 -68 -44 -148 -87 -80 -43 -147 -81 -150
-84 -3 -3 -27 -18 -55 -32 -100 -52 -210 -112 -225 -123 -8 -7 -28 -18 -45
-26 -16 -8 -55 -29 -85 -46 -30 -17 -76 -43 -102 -58 -27 -14 -69 -38 -95 -53
-27 -15 -66 -36 -88 -47 -22 -12 -42 -23 -45 -26 -3 -3 -21 -13 -40 -24 -119
-63 -159 -85 -190 -104 -19 -12 -39 -22 -45 -22 -5 0 -29 18 -53 40 -24 22
-46 40 -49 40 -4 0 -16 9 -27 19 -28 26 -147 84 -224 110 -91 29 -170 42 -270
43 -75 0 -119 -5 -228 -26 -50 -10 -180 -68 -249 -111 -131 -81 -264 -230
-317 -355 -33 -77 -40 -96 -44 -120 -3 -14 -10 -43 -16 -65 -19 -74 -17 -246
5 -335 28 -115 84 -233 150 -317 24 -31 160 -163 168 -163 4 0 15 -7 23 -16
21 -20 208 -116 214 -109 3 3 11 0 19 -6 7 -6 13 -9 13 -5 0 4 13 0 28 -8 21
-11 28 -21 27 -43 0 -15 -4 -34 -8 -40 -5 -7 -5 -13 0 -13 4 0 8 -272 8 -605
0 -333 -4 -605 -8 -605 -5 0 -5 -5 -1 -12 10 -16 11 -468 1 -468 -4 0 -4 -8 1
-17 4 -10 7 -108 7 -217 -1 -199 -1 -199 -25 -215 -16 -11 -22 -12 -16 -3 6
11 4 11 -10 4 -11 -6 -48 -22 -84 -37 -98 -40 -203 -109 -281 -185 -38 -37
-69 -72 -69 -78 0 -6 -4 -12 -9 -14 -27 -10 -125 -202 -137 -268 -3 -14 -10
-43 -16 -65 -19 -74 -17 -246 5 -335 24 -98 52 -166 104 -248 43 -69 46 -73
118 -146 160 -166 388 -259 625 -257 97 0 130 5 215 26 73 19 73 19 110 35 17
7 32 14 35 16 3 1 15 5 28 9 12 4 22 12 22 18 0 6 3 7 6 4 8 -8 154 92 154
104 0 5 5 9 11 9 7 0 17 8 24 17 12 16 18 15 76 -16 35 -18 93 -50 129 -71 36
-21 94 -53 130 -72 76 -40 113 -61 120 -68 3 -3 21 -13 40 -22 19 -10 62 -33
95 -52 33 -19 91 -51 128 -71 38 -20 85 -46 105 -58 21 -12 51 -29 67 -37 17
-8 32 -17 35 -21 3 -3 23 -14 45 -26 22 -11 94 -51 160 -88 66 -37 154 -86
195 -108 41 -22 80 -43 85 -47 6 -4 39 -23 75 -42 107 -58 162 -89 223 -124
32 -19 62 -34 68 -34 5 0 9 -5 9 -10 0 -6 3 -9 8 -8 8 3 210 -110 217 -122 2
-4 0 -22 -5 -41 -20 -69 -34 -258 -21 -284 3 -5 7 -19 8 -30 2 -11 6 -33 9
-50 3 -16 6 -36 6 -42 1 -7 5 -13 10 -13 5 0 6 -5 3 -10 -4 -6 -1 -17 5 -25 7
-8 10 -15 7 -15 -3 0 8 -28 25 -62 128 -264 373 -441 673 -484 44 -6 183 -6
225 0 91 14 106 18 178 42 243 81 434 266 528 509 4 11 8 23 9 28 2 4 3 8 5
10 4 5 19 74 26 122 11 77 5 259 -10 284 -3 5 -8 23 -10 39 -3 28 1 32 53 58
31 15 72 38 91 49 19 12 60 35 90 52 73 40 320 177 395 220 33 19 74 41 90 49
17 8 48 26 70 39 22 13 60 34 85 46 25 13 47 25 50 28 3 3 14 11 25 17 11 6
56 30 100 54 44 24 95 52 113 62 81 46 101 57 167 93 39 21 82 47 98 57 15 11
27 16 27 12 0 -3 6 -2 13 4 10 9 281 161 372 210 17 9 50 28 75 43 71 43 81
43 120 6 89 -86 273 -178 399 -202 233 -43 478 1 649 116 24 16 47 29 51 29
10 0 171 155 171 165 0 3 9 15 20 27 11 12 26 34 32 50 7 15 16 28 19 28 7 0
29 53 28 67 -1 3 3 9 8 12 10 8 40 95 48 141 3 19 10 51 14 70 12 57 4 220
-14 290 -9 36 -19 73 -21 84 -2 10 -8 23 -13 30 -5 6 -9 13 -9 16 -2 38 -94
179 -170 258 -57 60 -195 162 -218 162 -6 0 -17 7 -24 15 -7 8 -18 15 -25 15
-7 0 -30 8 -51 17 -22 9 -43 16 -48 15 -4 -2 -14 3 -22 9 -8 6 -14 8 -14 3 0
-4 -5 -3 -12 4 -13 13 -18 222 -6 222 4 0 4 10 0 23 -9 27 -9 48 1 65 5 6 4
12 0 12 -5 0 -7 37 -6 83 2 45 3 87 3 92 0 6 -1 54 -3 108 -1 53 2 97 6 97 5
0 5 5 1 12 -11 17 -11 148 -1 148 5 0 5 5 1 12 -10 16 -11 308 -2 308 4 0 4
10 0 23 -9 27 -9 48 1 65 5 6 4 12 0 12 -5 0 -7 37 -6 83 2 45 3 87 3 92 -4
216 -3 365 2 365 4 0 4 10 0 23 -9 27 -9 48 1 65 5 6 4 12 0 12 -5 0 -7 37 -6
83 4 102 4 92 0 155 -3 47 3 64 23 68 46 9 227 86 240 103 3 3 24 18 47 33 39
26 173 152 173 163 0 3 8 15 18 26 11 10 25 32 33 47 8 15 17 29 20 32 13 12
57 118 60 145 0 6 4 15 9 20 4 6 11 27 14 47 3 21 10 55 14 75 13 59 6 221
-13 293 -9 36 -19 73 -21 84 -2 10 -9 25 -16 34 -7 8 -12 16 -10 16 8 2 -20
59 -61 123 -198 309 -604 465 -957 368 -3 -1 -18 -5 -35 -10 -32 -8 -93 -34
-160 -67 -44 -21 -186 -123 -197 -141 -5 -9 -17 -7 -45 8 -21 11 -40 22 -43
25 -3 3 -36 21 -75 40 -38 19 -72 38 -75 42 -3 3 -39 25 -81 47 -42 22 -100
54 -128 71 -29 16 -54 30 -56 30 -2 0 -42 23 -90 50 -48 28 -88 50 -90 50 -2
0 -45 24 -97 53 -51 30 -120 69 -153 87 -130 71 -252 138 -290 160 -22 13 -69
39 -105 58 -36 20 -82 46 -102 59 -21 13 -42 23 -47 23 -5 0 -14 7 -21 15 -7
9 -15 13 -18 10 -3 -3 -10 -1 -16 4 -6 5 -33 21 -61 37 -27 15 -66 36 -85 47
-42 24 -102 58 -231 129 -100 56 -105 63 -83 118 15 36 21 218 9 290 -4 25
-14 68 -21 95 -8 28 -16 55 -17 60 -10 36 -64 138 -104 194 -125 176 -303 293
-518 342 -35 8 -66 12 -192 23 -18 2 -34 2 -35 1z m-579 -1424 c11 -7 2 -31
-50 -118 -35 -59 -67 -110 -71 -111 -5 -2 -6 -8 -2 -13 3 -5 0 -9 -5 -9 -6 0
-11 -4 -11 -9 0 -4 -25 -48 -55 -97 -30 -49 -58 -96 -62 -104 -3 -8 -19 -34
-35 -57 -15 -23 -28 -43 -28 -46 0 -2 -49 -86 -110 -186 -60 -100 -110 -187
-110 -192 0 -5 -4 -9 -10 -9 -5 0 -10 -4 -10 -9 0 -4 -85 -150 -190 -324 -104
-174 -190 -321 -190 -327 0 -5 -4 -10 -8 -10 -5 0 -16 -15 -25 -32 -9 -18 -23
-42 -29 -53 -48 -74 -78 -127 -78 -134 0 -5 -6 -16 -13 -23 -10 -11 -70 -107
-112 -181 -5 -10 -107 -178 -225 -375 -118 -196 -217 -361 -220 -367 -19 -38
-186 -311 -192 -313 -5 -2 -8 -9 -8 -15 0 -6 -10 -27 -23 -46 -33 -50 -86
-139 -110 -183 -12 -21 -25 -38 -29 -38 -5 0 -7 -4 -4 -9 3 -4 -3 -19 -14 -31
-11 -13 -20 -29 -20 -37 0 -7 -4 -13 -10 -13 -5 0 -10 -7 -10 -15 0 -8 -3 -15
-8 -15 -4 0 -14 -15 -21 -32 -8 -18 -22 -44 -31 -58 -37 -55 -140 -226 -195
-323 -5 -9 -63 -105 -127 -212 -65 -107 -118 -197 -118 -200 0 -15 -39 -45
-52 -40 -13 5 -15 139 -15 1110 0 607 3 1109 6 1114 4 5 18 12 31 14 39 8 197
73 210 87 9 10 69 50 75 50 3 0 13 8 23 18 10 9 32 28 48 42 16 14 47 48 69
74 22 26 46 54 53 62 7 8 10 14 5 14 -4 0 -3 4 2 8 29 20 105 198 121 283 13
73 18 187 10 244 -2 17 -7 53 -11 80 -4 28 -12 53 -17 56 -8 5 32 39 46 39 3
0 31 15 63 34 32 18 90 51 128 71 39 21 88 49 110 61 22 13 65 37 95 53 30 16
94 52 143 79 48 28 87 48 87 44 0 -4 4 -2 8 4 4 5 36 26 72 46 87 48 149 82
245 135 44 24 87 48 95 53 8 5 60 34 115 65 55 30 132 73 170 95 39 22 90 50
115 62 25 13 49 29 53 35 4 7 14 13 22 13 8 0 37 14 63 30 27 17 54 30 61 30
6 0 11 4 11 8 0 5 19 16 43 27 23 10 44 21 47 24 3 3 28 17 55 31 28 14 52 27
55 30 7 7 84 50 90 50 3 0 11 -4 19 -9z m1261 1 c0 -4 15 -14 33 -21 17 -8 53
-27 78 -42 43 -25 91 -52 209 -116 25 -14 51 -30 58 -35 6 -6 12 -7 12 -2 0 5
4 4 8 -1 9 -13 299 -175 313 -175 5 0 9 -4 9 -9 0 -5 8 -11 18 -14 9 -3 49
-23 87 -45 150 -84 172 -96 228 -128 32 -19 60 -34 62 -34 2 0 42 -22 90 -50
48 -27 88 -50 90 -50 1 0 47 -25 101 -56 55 -31 127 -71 161 -90 98 -53 108
-58 115 -69 5 -7 8 -7 8 0 0 7 3 7 8 0 4 -6 27 -20 52 -33 83 -43 155 -85 158
-94 2 -4 11 -8 20 -8 32 -1 52 -25 45 -56 -3 -16 -6 -36 -7 -44 -1 -9 -5 -20
-8 -26 -8 -13 -3 -258 6 -299 25 -113 101 -278 141 -307 6 -4 7 -8 3 -8 -5 0
0 -8 10 -18 129 -135 133 -139 196 -182 65 -44 156 -88 232 -111 l61 -19 0
-1107 c0 -1083 -1 -1122 -29 -1123 -8 0 -88 126 -88 140 0 5 -4 10 -10 10 -5
0 -10 4 -10 9 0 5 -22 46 -50 90 -27 44 -50 85 -50 91 0 5 -4 10 -10 10 -5 0
-10 4 -10 9 0 5 -85 151 -190 325 -104 175 -190 322 -190 327 0 5 -4 9 -10 9
-5 0 -10 7 -10 15 0 8 -4 15 -10 15 -5 0 -10 4 -10 10 0 5 -31 61 -70 124 -38
63 -70 119 -70 124 0 6 -4 12 -8 14 -5 2 -23 30 -42 63 -18 33 -39 67 -45 75
-7 8 -21 31 -32 50 -39 73 -198 335 -205 338 -5 2 -8 8 -8 13 0 5 -18 38 -40
74 -22 36 -40 70 -40 75 0 6 -4 10 -8 10 -4 0 -18 19 -30 43 -33 62 -56 101
-63 107 -4 3 -16 23 -28 45 -12 22 -27 49 -34 59 -50 79 -77 127 -77 136 0 5
-4 10 -10 10 -5 0 -10 5 -10 11 0 6 -13 30 -29 54 -16 23 -46 73 -67 110 -22
37 -47 79 -56 93 -10 15 -21 34 -25 42 -4 8 -35 60 -68 115 -34 55 -64 107
-68 115 -4 8 -21 35 -37 60 -16 25 -34 54 -40 65 -5 11 -21 38 -35 60 -14 22
-28 48 -31 58 -4 9 -10 17 -15 17 -5 0 -9 5 -9 11 0 6 -15 34 -33 62 -30 47
-137 224 -162 269 -5 10 -29 49 -52 88 -24 38 -52 85 -62 104 -11 19 -32 53
-46 76 -14 23 -34 56 -44 73 -10 18 -41 68 -68 112 -27 44 -52 87 -56 95 -4 8
-38 66 -76 129 -38 63 -67 120 -64 128 5 14 43 19 43 5z m-825 -227 c17 -2 41
-7 55 -10 32 -7 207 -7 240 0 14 3 39 8 55 10 17 3 37 8 46 11 10 3 25 -9 42
-33 46 -68 297 -493 297 -503 0 -5 5 -10 10 -10 6 0 14 -10 19 -22 5 -13 52
-94 105 -181 53 -87 96 -162 96 -168 0 -5 5 -9 10 -9 6 0 10 -4 10 -9 0 -5 51
-94 114 -198 62 -103 123 -204 133 -223 11 -19 64 -107 117 -194 53 -88 96
-163 96 -168 0 -4 4 -8 9 -8 5 0 11 -8 14 -17 4 -10 18 -36 32 -58 13 -22 28
-47 32 -55 4 -8 19 -33 33 -55 15 -22 38 -60 51 -85 13 -25 27 -47 30 -50 3
-3 17 -25 31 -50 47 -83 247 -415 258 -427 6 -7 7 -13 3 -13 -4 0 -3 -4 3 -8
6 -4 22 -27 36 -52 14 -25 58 -99 98 -165 40 -66 81 -134 91 -152 10 -17 29
-50 43 -72 15 -22 26 -45 26 -51 0 -5 4 -10 9 -10 5 0 12 -11 15 -25 4 -14 11
-25 16 -25 6 0 10 -7 10 -15 0 -8 5 -15 11 -15 5 0 7 -4 4 -10 -3 -5 -2 -10 3
-10 5 0 12 -8 15 -17 8 -24 40 -77 50 -81 4 -2 7 -7 7 -12 0 -4 18 -37 40 -71
22 -35 43 -70 46 -77 4 -7 37 -63 75 -125 38 -61 78 -131 90 -154 13 -24 27
-43 31 -43 5 0 6 -4 3 -10 -3 -5 -1 -10 4 -10 6 0 11 -4 11 -10 0 -5 16 -34
35 -64 19 -30 35 -60 35 -66 0 -5 3 -10 8 -10 4 0 12 -10 18 -23 15 -29 95
-166 145 -246 21 -34 39 -66 39 -69 0 -3 6 -13 14 -21 7 -9 24 -35 36 -59 l24
-42 -21 -19 c-11 -10 -38 -41 -59 -68 -21 -26 -41 -50 -44 -53 -18 -18 -85
-155 -104 -215 l-17 -50 -2602 2 c-1431 1 -2608 2 -2615 2 -7 1 -11 5 -7 10 3
5 1 12 -5 16 -5 3 -10 13 -10 22 0 51 -101 225 -177 303 -43 45 -49 73 -19 92
6 4 8 8 4 8 -4 0 11 30 35 68 23 37 48 76 54 87 7 11 22 36 33 55 11 19 25 42
30 50 30 45 92 148 102 170 7 14 25 44 40 67 15 23 28 46 28 52 0 6 4 11 9 11
5 0 14 12 20 28 10 26 30 61 41 72 11 11 31 46 41 73 6 15 14 27 19 27 4 0 10
8 13 18 6 17 37 72 47 82 3 3 11 16 19 30 36 62 168 284 218 365 30 50 67 111
82 136 14 26 57 98 95 160 38 63 77 128 87 146 10 17 29 50 43 72 15 22 26 45
26 51 0 6 7 13 15 16 8 4 12 10 9 15 -3 5 0 9 5 9 6 0 11 5 11 10 0 6 22 47
50 91 28 44 50 82 50 84 0 2 23 40 50 84 28 44 50 83 50 86 0 2 13 24 29 47
23 34 179 293 226 375 6 10 64 108 130 217 66 109 127 212 136 228 9 16 59 98
110 183 52 85 99 162 104 172 6 10 67 114 138 230 70 117 127 216 127 222 0 5
3 11 8 13 9 4 72 107 72 119 0 5 4 9 9 9 5 0 11 8 15 18 7 20 48 91 87 150 16
24 29 45 29 48 0 3 9 19 21 35 13 19 27 28 37 25 10 -3 31 -8 47 -11z m2788
-5159 c8 -19 -15 -45 -40 -46 -7 0 -13 -5 -13 -12 0 -6 -2 -9 -6 -6 -4 5 -231
-117 -259 -139 -5 -4 -30 -18 -55 -30 -25 -12 -70 -36 -100 -54 -82 -47 -344
-192 -480 -267 -36 -20 -87 -48 -113 -64 -26 -15 -52 -28 -57 -28 -6 0 -10 -3
-10 -7 0 -5 -25 -19 -55 -32 -30 -14 -55 -28 -55 -33 0 -4 -4 -8 -9 -8 -5 0
-83 -41 -173 -91 -90 -50 -183 -102 -208 -116 -52 -28 -105 -58 -175 -97 -156
-88 -175 -97 -195 -86 -11 6 -20 14 -20 18 0 4 -17 18 -37 32 -20 14 -42 31
-49 38 -37 37 -241 123 -324 136 -19 3 -46 8 -60 11 -32 7 -207 7 -240 0 -14
-3 -41 -8 -60 -11 -69 -11 -264 -88 -290 -114 -3 -3 -23 -17 -45 -32 -22 -15
-55 -41 -73 -58 -18 -16 -36 -30 -39 -30 -6 0 -291 157 -420 232 -21 12 -64
35 -96 52 -32 17 -66 36 -75 41 -26 15 -241 136 -287 161 -22 11 -62 34 -90
49 -27 16 -106 59 -175 98 -69 38 -130 73 -136 78 -6 5 -14 6 -17 2 -4 -3 -7
-1 -7 5 0 7 -4 12 -10 12 -5 0 -31 13 -58 29 -27 16 -89 50 -138 76 -49 26
-96 54 -105 61 -8 8 -18 14 -21 14 -5 0 -98 50 -218 118 -25 14 -66 36 -92 50
-27 14 -48 28 -48 33 0 35 -68 34 2618 34 2541 0 2607 0 2615 -19z"/>
</g>
</svg>
