<svg width="0" height="0" class="hidden">
    <symbol fill="" xmlns="http://www.w3.org/2000/svg" viewBox="0 0 134 50" id="rss-logo">
        <g clip-path="url(#clip0_38_359)">
            <path
                d="M69.1816 16.5611L75.5568 16.1471C75.7022 17.1944 75.9689 17.9737 76.4052 18.5339C77.1082 19.4106 78.0778 19.849 79.3625 19.849C80.3079 19.849 81.0593 19.6298 81.5684 19.1671C82.0532 18.8018 82.3441 18.2173 82.3441 17.6084C82.3441 17.0239 82.0774 16.4637 81.6169 16.0984C81.1321 15.66 79.9928 15.2216 78.199 14.832C75.2659 14.1744 73.157 13.2976 71.9208 12.1773C70.6845 11.1301 69.9816 9.59573 70.03 7.96397C70.03 6.84366 70.3694 5.72335 70.9996 4.79787C71.7268 3.75063 72.7207 2.92257 73.9085 2.45983C75.1932 1.89968 76.987 1.60742 79.2413 1.60742C82.0047 1.60742 84.1136 2.11887 85.568 3.16612C87.0224 4.18901 87.8951 5.84512 88.1617 8.1101L81.8593 8.47542C81.6896 7.50124 81.3502 6.79495 80.7927 6.33221C80.2352 5.86948 79.508 5.65029 78.5626 5.65029C77.7869 5.65029 77.2051 5.82077 76.8173 6.13738C76.4537 6.42963 76.2113 6.86802 76.2355 7.35511C76.2355 7.72043 76.4295 8.06139 76.7203 8.28058C77.0355 8.57284 77.7869 8.84074 78.9747 9.08428C81.9077 9.7175 83.9924 10.3507 85.2771 11.0083C86.5619 11.6659 87.483 12.4696 88.0405 13.4194C88.6223 14.3936 88.9132 15.5139 88.8889 16.6586C88.8889 18.0224 88.5011 19.3863 87.7254 20.5309C86.9255 21.7243 85.8104 22.6498 84.5015 23.21C83.1198 23.8188 81.3745 24.1354 79.2898 24.1354C75.6053 24.1354 73.0601 23.4291 71.6299 21.9922C70.1997 20.5553 69.3513 18.7531 69.1816 16.5611ZM1.52713 23.7701V1.9971H12.7019C14.7623 1.9971 16.3622 2.16758 17.453 2.5329C18.5195 2.87386 19.4649 3.58014 20.0952 4.52997C20.7981 5.57722 21.1375 6.79495 21.1132 8.06139C21.186 10.2046 20.0952 12.2504 18.2287 13.322C17.5014 13.736 16.7015 14.0283 15.8774 14.1744C16.4834 14.3449 17.0894 14.6371 17.6226 14.9781C18.0347 15.3191 18.3741 15.7087 18.6892 16.1228C19.0528 16.5368 19.3679 16.9995 19.6346 17.4866L22.8828 23.7945H15.2713L11.6838 17.0969C11.2232 16.2445 10.8354 15.6844 10.4718 15.4165C9.98698 15.0755 9.40521 14.905 8.82345 14.905H8.24168V23.7458H1.52713V23.7701ZM8.24168 10.8135H11.0778C11.6838 10.7648 12.2656 10.6673 12.8473 10.5212C13.2836 10.4481 13.6715 10.2046 13.9381 9.83928C14.5926 8.96251 14.4957 7.72043 13.6957 6.96543C13.2594 6.60012 12.411 6.40528 11.199 6.40528H8.24168V10.8135ZM0 42.4257L6.37518 42.0117C6.52062 43.059 6.78727 43.8383 7.22359 44.3985C7.90232 45.2752 8.89617 45.738 10.1809 45.738C11.1263 45.738 11.8777 45.5188 12.3868 45.056C12.8716 44.6664 13.1624 44.1062 13.1624 43.4973C13.1624 42.9128 12.8958 42.3527 12.4352 41.9874C11.9504 41.549 10.8111 41.1106 8.99313 40.7209C6.06006 40.0633 3.95116 39.1866 2.71491 38.0663C1.47865 37.019 0.775687 35.4847 0.824168 33.8529C0.824168 32.7326 1.16353 31.6123 1.79378 30.6868C2.52098 29.6396 3.51483 28.8115 4.70261 28.3488C5.98734 27.7886 7.78112 27.4964 10.0355 27.4964C12.7988 27.4964 14.9077 28.0078 16.3622 29.0551C17.8166 30.1023 18.665 31.7341 18.9316 33.999L12.6292 34.3644C12.4595 33.3902 12.1201 32.6839 11.5626 32.2212C11.0293 31.7584 10.2779 31.5392 9.33249 31.5636C8.5568 31.5636 7.97504 31.7341 7.58719 32.075C7.19935 32.3673 6.98119 32.8057 7.00543 33.2928C7.00543 33.6581 7.19935 33.999 7.49023 34.2182C7.80536 34.5105 8.5568 34.7784 9.74457 35.0219C12.6776 35.6552 14.7623 36.2884 16.047 36.9459C17.3318 37.6035 18.2529 38.4072 18.8104 39.3571C19.3922 40.3312 19.6831 41.4515 19.6831 42.5719C19.6831 43.9357 19.271 45.2752 18.5195 46.4199C17.7196 47.6133 16.6046 48.5387 15.2956 49.0989C13.9139 49.7078 12.1686 50.0244 10.0839 50.0244C6.39942 50.0244 3.8542 49.3181 2.42402 47.8812C0.99385 46.4199 0.193922 44.6176 0 42.4257H0Z"
                fill=""></path>
            <path
                d="M32.2395 40.7209L38.1056 42.4988C37.7905 43.9844 37.136 45.397 36.2391 46.6391C35.4149 47.735 34.3241 48.5874 33.0879 49.1476C31.8274 49.7077 30.2275 50 28.2883 50C25.937 50 23.9978 49.659 22.5191 48.9771C21.0162 48.2952 19.7315 47.0774 18.6407 45.3483C17.5499 43.6191 17.0166 41.4028 17.0166 38.6995C17.0166 35.095 17.962 32.3185 19.8769 30.3945C21.7919 28.4705 24.4826 27.4963 27.9732 27.4963C30.7123 27.4963 32.8455 28.0565 34.4211 29.1524C35.9725 30.2728 37.136 31.9776 37.9117 34.2669L31.9971 35.5821C31.8516 35.0706 31.6335 34.5592 31.3426 34.1208C30.979 33.6093 30.5184 33.2197 29.9609 32.9274C29.4034 32.6352 28.7731 32.5134 28.1429 32.5134C26.6157 32.5134 25.4522 33.1223 24.6523 34.3643C24.0463 35.2655 23.7311 36.7024 23.7311 38.6507C23.7311 41.0619 24.0948 42.718 24.822 43.6191C25.5492 44.5202 26.5673 44.9586 27.9005 44.9586C29.1852 44.9586 30.1548 44.5933 30.8093 43.887C31.4638 43.132 31.9486 42.0847 32.2395 40.7209ZM45.9352 27.8617H52.6255V35.4846H59.9461V27.8617H66.6848V49.6347H59.9461V40.8183H52.6255V49.6347H45.9352V27.8617Z"
                fill=""></path>
            <path
                d="M65.7637 38.7482C65.7637 35.1924 66.7575 32.416 68.721 30.4432C70.6844 28.4705 73.4478 27.472 76.9627 27.472C80.5745 27.472 83.3378 28.4462 85.3013 30.3945C87.2648 32.3429 88.2344 35.0706 88.2344 38.5777C88.2344 41.1349 87.798 43.2051 86.9496 44.8368C86.1255 46.4442 84.8407 47.7594 83.2651 48.6361C81.641 49.5373 79.6291 50 77.2293 50C74.781 50 72.7691 49.6103 71.1692 48.831C69.5209 48.0029 68.1635 46.7121 67.2666 45.1291C66.2727 43.4242 65.7637 41.3054 65.7637 38.7482ZM72.454 38.7725C72.454 40.9644 72.8661 42.5475 73.666 43.5217C74.4659 44.4715 75.581 44.9586 76.9869 44.9586C78.4171 44.9586 79.5321 44.4959 80.3321 43.546C81.132 42.5962 81.5198 40.9157 81.5198 38.4803C81.5198 36.4345 81.1077 34.9245 80.2836 33.999C79.4594 33.0492 78.3444 32.5865 76.9384 32.5865C75.7022 32.5377 74.5144 33.0735 73.6902 34.0234C72.8661 34.9732 72.454 36.5562 72.454 38.7725ZM95.0944 38.7482C95.0944 35.1924 96.0882 32.416 98.0517 30.4432C100.015 28.4705 102.779 27.472 106.293 27.472C109.905 27.472 112.693 28.4462 114.632 30.3945C116.571 32.3429 117.565 35.0706 117.565 38.5777C117.565 41.1349 117.129 43.2051 116.28 44.8368C115.456 46.4442 114.171 47.7594 112.596 48.6361C110.972 49.5373 108.96 50 106.56 50C104.112 50 102.1 49.6103 100.5 48.831C98.8516 48.0029 97.4941 46.7121 96.5973 45.1291C95.6034 43.4242 95.0944 41.3054 95.0944 38.7482ZM101.785 38.7725C101.785 40.9644 102.197 42.5475 102.997 43.5217C103.797 44.4715 104.912 44.9586 106.318 44.9586C107.748 44.9586 108.863 44.4959 109.663 43.546C110.463 42.5962 110.851 40.9157 110.851 38.4803C110.851 36.4345 110.438 34.9245 109.614 33.999C108.79 33.0492 107.675 32.5865 106.269 32.5865C105.033 32.5377 103.821 33.0735 103.021 34.0234C102.197 34.9732 101.785 36.5562 101.785 38.7725Z"
                fill=""></path>
            <path d="M116.862 27.8617H123.552V44.2767H134V49.6347H116.838V27.8617H116.862Z" fill=""></path>
            <path
                d="M109.488 26.6051C116.224 21.5053 118.301 12.8602 114.127 7.29584C109.954 1.73146 101.11 1.35489 94.3743 6.45474C87.6386 11.5546 85.5615 20.1997 89.7351 25.764C93.9086 31.3284 102.752 31.705 109.488 26.6051Z"
                fill=""></path>
            <path
                d="M109.488 26.6051C116.224 21.5053 118.301 12.8602 114.127 7.29584C109.954 1.73146 101.11 1.35489 94.3743 6.45474C87.6386 11.5546 85.5615 20.1997 89.7351 25.764C93.9086 31.3284 102.752 31.705 109.488 26.6051Z"
                fill=""></path>
            <path
                d="M109.488 26.6051C116.224 21.5053 118.301 12.8602 114.127 7.29584C109.954 1.73146 101.11 1.35489 94.3743 6.45474C87.6386 11.5546 85.5615 20.1997 89.7351 25.764C93.9086 31.3284 102.752 31.705 109.488 26.6051Z"
                fill="" stroke="" stroke-width="4" stroke-miterlimit="10"></path>
            <path
                d="M95.1189 14.9294L97.5429 13.2245L100.524 17.4866C101.033 18.1685 101.421 18.8992 101.712 19.7029C101.882 20.3117 101.833 20.9693 101.591 21.5538C101.276 22.2845 100.767 22.8933 100.088 23.3317C99.2882 23.8919 98.6095 24.2085 98.0277 24.3059C97.4702 24.4033 96.8884 24.3059 96.3551 24.0623C95.7734 23.7701 95.2643 23.3561 94.8765 22.8203L96.9611 20.8719C97.1308 21.1398 97.349 21.3833 97.5914 21.5782C97.7611 21.6999 97.955 21.773 98.1731 21.773C98.3428 21.773 98.5125 21.6999 98.6337 21.6025C98.8761 21.4564 99.0458 21.1641 99.0215 20.8719C98.9488 20.4579 98.7791 20.0438 98.5125 19.7272L95.1189 14.9294ZM102.391 17.6327L104.597 15.8792C104.839 16.1714 105.154 16.3906 105.494 16.5124C105.978 16.6585 106.488 16.5611 106.9 16.2445C107.191 16.0497 107.433 15.7818 107.53 15.4408C107.675 15.0024 107.433 14.5153 106.997 14.3692C106.924 14.3449 106.851 14.3205 106.778 14.3205C106.488 14.2961 105.978 14.4179 105.227 14.7345C103.991 15.246 103.021 15.4408 102.294 15.3677C101.591 15.2947 100.937 14.9294 100.549 14.3205C100.258 13.9065 100.112 13.4194 100.088 12.9323C100.088 12.3721 100.234 11.812 100.549 11.3492C101.009 10.6917 101.567 10.1315 102.245 9.69312C103.264 8.98684 104.16 8.64587 104.936 8.64587C105.712 8.64587 106.439 9.01119 107.118 9.76619L104.936 11.4954C104.5 10.9352 103.676 10.8134 103.118 11.2518L103.045 11.3249C102.803 11.471 102.633 11.6902 102.536 11.9581C102.464 12.1529 102.512 12.3721 102.633 12.5426C102.73 12.6644 102.876 12.7618 103.045 12.7618C103.239 12.7862 103.579 12.6887 104.064 12.4695C105.276 11.9581 106.197 11.6658 106.827 11.5684C107.36 11.471 107.918 11.5197 108.427 11.7389C108.887 11.9337 109.275 12.2747 109.542 12.6887C109.881 13.1758 110.075 13.7603 110.099 14.3692C110.124 15.0024 109.954 15.6113 109.615 16.1471C109.178 16.8047 108.621 17.3648 107.966 17.8032C106.633 18.7287 105.542 19.1184 104.67 18.9722C103.724 18.8261 102.948 18.339 102.391 17.6327Z"
                fill="black"></path>
        </g>
        <defs>
            <clipPath id="clip0_38_359">
                <rect width="134" height="50" fill=""></rect>
            </clipPath>
        </defs>
    </symbol>
    <symbol fill="" xmlns="http://www.w3.org/2000/svg" viewBox="0 0 62 59" id="logo">
        <path fill-rule="evenodd" clip-rule="evenodd"
            d="m30.625 4.073 22.86 12.713v25.428l-22.86 12.713-22.86-12.713V16.786l22.86-12.713Zm-20.296 14.14V36.89L27.122 8.874 10.33 18.213ZM30.625 7.97 11.268 40.265h38.713L30.625 7.97Zm16.791 34.766H13.833l16.792 9.338 16.791-9.338Zm3.504-5.846L34.128 8.874l16.792 9.339V36.89Z"
            fill=""></path>
        <path
            d="M30.625 10.703c2.983 0 5.402-2.33 5.402-5.204 0-2.874-2.419-5.203-5.402-5.203-2.984 0-5.403 2.33-5.403 5.203 0 2.874 2.42 5.204 5.403 5.204ZM52.202 22.703c2.984 0 5.402-2.33 5.402-5.203 0-2.874-2.418-5.204-5.402-5.204-2.983 0-5.402 2.33-5.402 5.204 0 2.874 2.419 5.203 5.402 5.203ZM52.202 46.704c2.984 0 5.402-2.33 5.402-5.204 0-2.874-2.418-5.203-5.402-5.203-2.983 0-5.402 2.33-5.402 5.203 0 2.874 2.419 5.204 5.402 5.204ZM30.625 58.705c2.983 0 5.402-2.33 5.402-5.204 0-2.874-2.419-5.204-5.402-5.204-2.984 0-5.403 2.33-5.403 5.204 0 2.874 2.42 5.204 5.403 5.204ZM9.044 46.704c2.984 0 5.402-2.33 5.402-5.204 0-2.874-2.418-5.203-5.402-5.203s-5.402 2.33-5.402 5.203c0 2.874 2.418 5.204 5.402 5.204ZM9.044 22.703c2.984 0 5.402-2.33 5.402-5.203 0-2.874-2.418-5.204-5.402-5.204s-5.402 2.33-5.402 5.204c0 2.874 2.418 5.203 5.402 5.203Z"
            fill=""></path>
    </symbol>
    <symbol fill="" xmlns="http://www.w3.org/2000/svg" viewBox="0 0 30 29" id="close">
        <path d="m29 3.979-26.499 23.5c-1.5.5-1.555-1.108-1.037-1.661L27.381 2.565c1.659-.443 1.792.675 1.62 1.414Z"
            fill="" stroke=""></path>
        <path
            d="m3.881 1.376 24.08 25.651c.422 1.625-1.112 1.54-1.684 1.039L2.203 2.923c-.473-1.622.922-1.707 1.678-1.547Z"
            fill="" stroke=""></path>
    </symbol>
    <symbol fill="" xmlns="http://www.w3.org/2000/svg" viewBox="0 0 22 26" id="docs">
        <path
            d="M1 3.357C1 4.66 2.089 5.714 3.432 5.714h15.406M1 3.357C1 2.055 2.089 1 3.432 1h14.325c.597 0 1.08.469 1.08 1.048v3.666M1 3.357v18.857c0 1.302 1.089 2.357 2.432 2.357H19.92c.597 0 1.081-.469 1.081-1.047V6.762c0-.579-.484-1.048-1.081-1.048h-1.081M13.857 12.429H6.714"
            stroke="" stroke-width="1.5"></path>
    </symbol>

    <symbol fill="" xmlns="http://www.w3.org/2000/svg" viewBox="0 0 23 19" id="history">
        <path d="m2 8.616 3.16 3.634L8.25 8.5M13.25 4.75v5h4.375" stroke="" stroke-width="1.5" stroke-linecap="square">
        </path>
        <path d="M5.311 11.2a8.437 8.437 0 1 1 8.252 6.675" stroke="" stroke-width="1.5"></path>
    </symbol>

    <symbol fill="" xmlns="http://www.w3.org/2000/svg" viewBox="0 0 20 20" id="refresh">
        <path d="M5.938 11.563H1.563v4.374M14.063 8.438h4.374V4.061" stroke="" stroke-linecap="square"></path>
        <path d="M17.63 8.32A7.812 7.812 0 0 0 2.412 8.14M2.37 11.68a7.813 7.813 0 0 0 15.218.179" stroke=""></path>
    </symbol>

    <symbol fill="" xmlns="http://www.w3.org/2000/svg" viewBox="0 0 20 19" id="short-keys">
        <g clip-path="url(#a)" stroke="" stroke-width="1.125" stroke-linecap="round" stroke-linejoin="round">
            <path
                d="M1.58 15.324a2.561 2.561 0 0 0 2.562 2.562 2.564 2.564 0 0 0 2.563-2.562v-2.561H4.142a2.563 2.563 0 0 0-2.563 2.561ZM4.142 1.053a2.564 2.564 0 0 0-2.563 2.561 2.56 2.56 0 0 0 2.563 2.562h2.563V3.614a2.561 2.561 0 0 0-2.563-2.561ZM15.858 12.763h-2.563v2.561a2.56 2.56 0 0 0 3.063 2.513 2.564 2.564 0 0 0 1.868-3.493 2.562 2.562 0 0 0-2.368-1.581Z">
            </path>
            <path d="M13.297 6.174H6.705v6.587h6.592V6.174Z"></path>
            <path
                d="M18.42 3.614a2.561 2.561 0 0 0-2.562-2.562 2.564 2.564 0 0 0-2.563 2.562v2.561h2.563a2.563 2.563 0 0 0 2.563-2.561Z">
            </path>
        </g>
        <defs>
            <clipPath id="a">
                <path fill="" d="M0 0h20v18.938H0z"></path>
            </clipPath>
        </defs>
    </symbol>

    <symbol fill="" xmlns="http://www.w3.org/2000/svg" viewBox="0 0 20 19" id="settings">
        <g clip-path="url(#a)">
            <path fill-rule="evenodd" clip-rule="evenodd"
                d="M8.85 1.829a1.65 1.65 0 0 1-.557-.405L7.492.546a1.66 1.66 0 0 0-2.883 1.192l.061 1.186A1.649 1.649 0 0 1 3.61 4.55c-.217.083-.449.12-.68.109l-1.186-.061A1.663 1.663 0 0 0 .126 5.616a1.648 1.648 0 0 0 .422 1.86l.88.793a1.645 1.645 0 0 1 .407 1.898c-.095.211-.233.4-.406.555l-.881.793a1.652 1.652 0 0 0-.418 1.854 1.654 1.654 0 0 0 1.609 1.02l1.185-.06a1.663 1.663 0 0 1 1.633 1.057c.083.216.12.446.108.677l-.06 1.182a1.648 1.648 0 0 0 1.02 1.612 1.662 1.662 0 0 0 1.867-.42l.806-.878a1.651 1.651 0 0 1 1.904-.405c.212.095.402.233.557.405l.796.878a1.66 1.66 0 0 0 2.887-1.192l-.06-1.182a1.65 1.65 0 0 1 1.06-1.626c.217-.083.448-.12.68-.109l1.186.061a1.663 1.663 0 0 0 1.617-1.018 1.648 1.648 0 0 0-.42-1.86l-.882-.793a1.642 1.642 0 0 1 0-2.453l.881-.793a1.652 1.652 0 0 0 .421-1.86 1.654 1.654 0 0 0-1.617-1.018l-1.186.06a1.665 1.665 0 0 1-1.632-1.057 1.65 1.65 0 0 1-.109-.677l.061-1.182A1.65 1.65 0 0 0 13.421.126a1.664 1.664 0 0 0-1.866.42l-.801.878a1.65 1.65 0 0 1-1.905.405Zm4.84 7.663a4.16 4.16 0 0 1-4.166 4.152 4.16 4.16 0 0 1-4.167-4.152 4.16 4.16 0 0 1 4.167-4.153 4.16 4.16 0 0 1 4.166 4.153Z"
                fill=""></path>
        </g>
        <defs>
            <clipPath id="a">
                <path fill="" d="M0 0h20v18.983H0z"></path>
            </clipPath>
        </defs>
    </symbol>

    <symbol fill="" xmlns="http://www.w3.org/2000/svg" viewBox="0 0 20 22" id="play">
        <path
            d="M0 1.27C0 .313 1.011-.299 1.85.148l17.48 9.303c.894.476.894 1.764 0 2.24L1.85 20.995c-.839.447-1.85-.165-1.85-1.12V1.27Z"
            fill=""></path>
    </symbol>

    <symbol fill="" xmlns="http://www.w3.org/2000/svg" viewBox="0 0 20 20" id="prettify">
        <g clip-path="url(#a)" stroke="" stroke-width="1.563">
            <path
                d="m8.229 19.26 2.743-4.8M11.66 19.26l2.056-3.429M15.59 19.259l.988-1.857a4.787 4.787 0 0 0-.87-5.652l3.33-6.247a1.372 1.372 0 0 0-2.42-1.29l-3.331 6.246a4.782 4.782 0 0 0-5.18 2.421L4.8 19.259">
            </path>
            <path
                d="m3.2 12 .8-1.6 1.6-.8L4 8.8l-.8-1.6-.8 1.6-1.6.8 1.6.8.8 1.6ZM9.2 6.4l.933-1.867L12 3.6l-1.867-.933L9.2.8l-.933 1.867L6.4 3.6l1.867.933L9.2 6.4Z"
                stroke-linejoin="round"></path>
        </g>
        <defs>
            <clipPath id="a">
                <path fill="" d="M0 0h20v20H0z"></path>
            </clipPath>
        </defs>
    </symbol>

    <symbol fill="" xmlns="http://www.w3.org/2000/svg" viewBox="0 0 20 20" id="merge">
        <path
            d="M17.5 7.273V4.506A2.006 2.006 0 0 0 15.492 2.5H4.506A2.006 2.006 0 0 0 2.5 4.506v2.767M2.5 12.727v2.767c0 1.108.898 2.006 2.006 2.006h10.987a2.006 2.006 0 0 0 2.006-2.006v-2.767"
            stroke="" stroke-width="1.5"></path>
        <path d="M7.272 5.91 10 8.635l2.727-2.727M12.727 14.09 10 11.365 7.272 14.09" stroke="" stroke-width="1.5">
        </path>
    </symbol>

    <symbol fill="" xmlns="http://www.w3.org/2000/svg" viewBox="0 0 20 20" id="copy">
        <path
            d="M12.046 14.737v.931c0 1.012-.82 1.832-1.832 1.832H4.332A1.832 1.832 0 0 1 2.5 15.668V9.786c0-1.011.82-1.831 1.832-1.831h.931"
            stroke="" stroke-width="1.5"></path>
        <path
            d="M15.493 2.5H9.96a2.006 2.006 0 0 0-2.006 2.006v5.533c0 1.108.898 2.007 2.006 2.007h5.533a2.006 2.006 0 0 0 2.007-2.007V4.506A2.006 2.006 0 0 0 15.493 2.5Z"
            stroke="" stroke-width="1.5"></path>
    </symbol>
    <symbol fill="" xmlns="http://www.w3.org/2000/svg" viewBox="0 0 50 50" id="github">
        <path
            d="M38.0625 14.5C38.8125 11.8125 37.6874 8.87499 37.6249 8.68749C37.4374 8.24999 37 7.87499 36.5 7.87499C36.375 7.87499 33.5 7.62499 30.625 9.81249C28.375 9.37499 25.8124 9.24999 25.6874 9.24999C25.6249 9.24999 25.6249 9.24999 25.5624 9.24999C25.4374 9.24999 22.8749 9.37499 20.6249 9.81249C17.7499 7.62499 14.8749 7.87499 14.7499 7.87499C14.2499 7.93749 13.8124 8.24999 13.6249 8.68749C13.5624 8.81249 12.3749 11.8125 13.1874 14.5C11.7499 16.5 10.6249 19.125 11.6249 23.8125C12.5624 28.0625 16.0624 30.4375 19.6874 31.25C19.3749 32.125 19.2499 33.1875 19.1249 34.3125C17.6249 34.375 16.6874 33.5 15.3749 32.125C14.2499 30.9375 12.9999 29.5625 10.9374 29.125C10.2499 28.9375 9.56245 29.375 9.37495 30.125C9.24995 30.875 9.68745 31.5625 10.4374 31.6875C11.6249 31.9375 12.4374 32.8125 13.4374 33.875C14.7499 35.25 16.2499 36.9375 18.9374 36.9375H18.9999C18.9999 38.375 19.1249 39.75 19.1874 40.875C19.2499 41.625 19.8749 42.125 20.6249 42.0625C21.3749 42 21.8749 41.375 21.8124 40.625C21.4374 36.375 21.7499 31.875 22.4374 31.25C22.9374 30.9375 23.2499 30.375 23.0624 29.75C22.9374 29.1875 22.4374 28.75 21.8124 28.75C21.2499 28.75 15.3749 28.4375 14.2499 23.25C13.3124 19 14.4999 17.125 15.7499 15.625C16.0624 15.25 16.1249 14.6875 15.9374 14.1875C15.4374 13.125 15.6249 11.625 15.8749 10.625C16.7499 10.75 18.0624 11.125 19.4374 12.3125C19.7499 12.625 20.1874 12.6875 20.6249 12.625C22.5624 12.125 25.1874 12 25.6249 12C25.9999 12 28.6875 12.125 30.625 12.625C31.0625 12.75 31.4999 12.625 31.8124 12.3125C33.1874 11.125 34.5624 10.75 35.3749 10.625C35.6249 11.5625 35.8125 13.0625 35.3125 14.1875C35.125 14.625 35.1874 15.1875 35.4999 15.625C36.7499 17.125 37.875 19 37 23.25C35.875 28.4375 30 28.75 29.3125 28.8125C28.6875 28.8125 28.1874 29.25 28.0624 29.8125C27.9374 30.375 28.1874 31 28.6874 31.3125C29.4374 31.9375 29.75 36.375 29.375 40.6875C29.3125 41.4375 29.875 42.0625 30.5625 42.125C30.625 42.125 30.625 42.125 30.6875 42.125C31.375 42.125 31.9374 41.625 31.9999 40.9375C32.2499 38.1875 32.4374 33.9375 31.5624 31.25C35.1874 30.5 38.6875 28.0625 39.625 23.8125C40.625 19.125 39.5625 16.5 38.0625 14.5Z"
            fill=""></path>
    </symbol>
</svg>